<?xml version="1.0" encoding="UTF-8" standalone="no"?>
<!DOCTYPE svg PUBLIC "-//W3C//DTD SVG 1.1//EN" "http://www.w3.org/Graphics/SVG/1.1/DTD/svg11.dtd">
<svg width="100%" height="100%" viewBox="0 0 474 474" version="1.1" xmlns="http://www.w3.org/2000/svg" xmlns:xlink="http://www.w3.org/1999/xlink" xml:space="preserve" xmlns:serif="http://www.serif.com/" style="fill-rule:evenodd;clip-rule:evenodd;stroke-linejoin:round;stroke-miterlimit:1.41421;">
    <path d="M422.353,233.037C405.646,230.085 386.71,226.74 371.451,218.559C332.677,197.731 187.946,124.364 182.301,121.503C180.607,120.338 178.715,119.723 176.817,119.723C173.775,119.723 170.85,121.202 168.992,123.685L148.143,151.642C146.948,152.813 146.462,154.306 146.773,155.873C147.755,160.824 158.863,167.138 179.8,174.653C171.237,178.917 143.369,187.738 113.702,187.738C59.329,187.738 39.93,163.845 30.606,152.363C27.043,147.975 24.893,145.326 21.979,145.326C20.531,145.326 19.234,146.017 18.098,147.412C-10.486,183.744 1.255,238.608 9.827,278.668C10.232,280.56 10.63,282.418 11.016,284.241C16.683,310.983 27.646,314.741 45.065,318.658C47.661,319.242 53.628,319.757 62.236,320.213L64.715,344.016C65.267,349.318 69.875,353.472 75.206,353.472L90.82,353.472C96.151,353.472 100.759,349.319 101.311,344.017L103.645,321.612C108.46,321.723 113.489,321.828 118.699,321.927L121,344.018C121.553,349.32 126.161,353.473 131.491,353.473L147.104,353.473C152.435,353.473 157.043,349.32 157.595,344.018L159.83,322.559C204.396,323.109 255.208,323.379 299.732,323.506L301.869,344.019C302.422,349.321 307.03,353.474 312.36,353.474L327.972,353.474C333.304,353.474 337.911,349.32 338.462,344.019L340.59,323.59C345.939,323.597 351.095,323.601 356.026,323.605L358.152,344.02C358.705,349.322 363.313,353.475 368.643,353.475L384.255,353.475C389.585,353.475 394.193,349.322 394.746,344.02L397.076,321.661C412.185,319.164 427.145,314.363 439.633,307.79C461.276,296.398 473.195,281.078 473.195,264.651C473.197,242.02 449.635,237.857 422.353,233.037ZM303.912,213.016L227.404,283.048C227.323,283.108 227.277,283.13 227.282,283.134L191.927,283.109C191.888,283.066 191.871,283.001 191.873,283.001L277.13,205.752C277.162,205.747 277.22,205.747 277.269,205.754L303.924,212.883C303.945,212.91 303.969,212.963 303.912,213.016ZM157.925,282.561L157.927,282.56L120.762,283.036C120.713,283.036 120.683,283.036 120.646,282.943C120.611,282.855 120.628,282.817 120.624,282.817C120.623,282.817 120.621,282.819 120.617,282.822L233.583,181.953C233.627,181.915 233.673,181.905 233.761,181.92L260.26,189.043C260.338,189.065 260.349,189.088 260.358,189.124C260.373,189.186 260.351,189.239 260.311,189.276L158.069,282.474C157.975,282.541 157.925,282.561 157.925,282.561Z" style="fill:rgb(57,73,147);fill-rule:nonzero;"/>
</svg>
