<?xml version="1.0" encoding="UTF-8" standalone="no"?>
<!DOCTYPE svg PUBLIC "-//W3C//DTD SVG 1.1//EN" "http://www.w3.org/Graphics/SVG/1.1/DTD/svg11.dtd">
<svg width="100%" height="100%" viewBox="0 0 300 300" version="1.1" xmlns="http://www.w3.org/2000/svg" xmlns:xlink="http://www.w3.org/1999/xlink" xml:space="preserve" xmlns:serif="http://www.serif.com/" style="fill-rule:evenodd;clip-rule:evenodd;stroke-linejoin:round;stroke-miterlimit:1.41421;">
    <path d="M149.997,0C67.157,0 0.001,67.158 0.001,149.995C0.001,232.832 67.157,299.998 149.996,299.998C232.835,299.998 299.996,232.835 299.996,149.995C299.996,67.155 232.836,0 149.997,0ZM160.355,168.337C160.347,168.731 160.288,169.125 160.233,169.52C160.194,169.816 160.176,170.119 160.109,170.41C160.042,170.713 159.927,171.012 159.829,171.315C159.712,171.681 159.603,172.046 159.45,172.391C159.421,172.451 159.411,172.515 159.385,172.575C159.159,173.057 158.897,173.509 158.61,173.937C158.592,173.963 158.568,173.989 158.55,174.015C158.223,174.495 157.85,174.931 157.458,175.34C157.349,175.452 157.238,175.553 157.123,175.659C156.778,175.988 156.415,176.289 156.029,176.564C155.91,176.65 155.796,176.74 155.671,176.823C155.176,177.147 154.657,177.432 154.117,177.666C154,177.718 153.878,177.749 153.759,177.796C153.303,177.972 152.841,178.118 152.364,178.229C152.193,178.27 152.024,178.307 151.85,178.338C151.238,178.45 150.618,178.527 149.99,178.527C149.863,178.527 149.733,178.488 149.606,178.483C149.004,178.46 148.408,178.413 147.835,178.291C147.656,178.252 147.48,178.174 147.301,178.125C146.767,177.98 146.245,177.819 145.747,177.596C145.69,177.567 145.63,177.562 145.573,177.536L88.058,150.407C82.876,147.964 80.656,141.781 83.099,136.599C85.542,131.42 91.725,129.197 96.907,131.64L139.623,151.784L139.623,62.249C139.623,56.52 144.268,51.875 149.997,51.875C155.726,51.875 160.371,56.52 160.371,62.249L160.371,168.15L160.373,168.15C160.373,168.212 160.355,168.274 160.355,168.337Z" style="fill:rgb(57,73,147);fill-rule:nonzero;"/>
</svg>
