<?xml version="1.0" encoding="UTF-8" standalone="no"?>
<!DOCTYPE svg PUBLIC "-//W3C//DTD SVG 1.1//EN" "http://www.w3.org/Graphics/SVG/1.1/DTD/svg11.dtd">
<svg width="100%" height="100%" viewBox="0 0 47 47" version="1.1" xmlns="http://www.w3.org/2000/svg" xmlns:xlink="http://www.w3.org/1999/xlink" xml:space="preserve" xmlns:serif="http://www.serif.com/" style="fill-rule:evenodd;clip-rule:evenodd;stroke-linejoin:round;stroke-miterlimit:1.41421;">
    <path d="M46.119,34.254C46.119,31.185 44.288,28.388 41.414,27.302L25.159,21.009L25.107,18.93C28.22,18.038 30.513,15.171 30.513,11.774C30.513,7.667 27.173,4.326 23.067,4.326C21.046,4.326 18.249,5.889 16.731,8.187C16.351,8.758 16.317,9.511 16.643,10.116C16.968,10.722 17.598,11.117 18.287,11.117L18.321,11.117C18.965,11.117 19.559,10.753 19.876,10.192C20.544,9.003 21.948,8.174 23.071,8.174C25.058,8.174 26.677,9.796 26.677,11.781C26.677,13.771 25.058,15.39 23.071,15.39C23.067,15.39 23.065,15.39 23.062,15.39C22.589,15.39 22.134,15.573 21.803,15.908C21.47,16.245 21.283,16.698 21.289,17.173L21.334,21.007L4.747,27.302C1.876,28.388 0,31.181 0,34.252L0,35.439C0,38.882 2.693,41.857 6.135,41.857L40.014,41.857C43.453,41.857 46.182,38.898 46.182,35.456L46.119,34.254ZM42.346,35.438C42.346,36.762 41.334,37.988 40.012,37.988L6.135,37.988C4.813,37.988 3.817,36.762 3.817,35.438L3.817,34.25C3.817,32.766 4.709,31.417 6.095,30.895L23.094,24.455L40.07,30.895C41.459,31.417 42.345,32.766 42.345,34.25L42.345,35.438L42.346,35.438Z" style="fill:rgb(57,73,147);fill-rule:nonzero;"/>
</svg>
