<?xml version="1.0" encoding="UTF-8" standalone="no"?>
<!DOCTYPE svg PUBLIC "-//W3C//DTD SVG 1.1//EN" "http://www.w3.org/Graphics/SVG/1.1/DTD/svg11.dtd">
<svg width="100%" height="100%" viewBox="0 0 682 682" version="1.1" xmlns="http://www.w3.org/2000/svg" xmlns:xlink="http://www.w3.org/1999/xlink" xml:space="preserve" xmlns:serif="http://www.serif.com/" style="fill-rule:evenodd;clip-rule:evenodd;stroke-linejoin:round;stroke-miterlimit:1.41421;">
    <path d="M478.649,44.809C449.783,121.89 456.796,110.339 384.082,178.702C359.789,201.55 321.576,201.749 297.038,179.092C224.593,112.165 229.502,121.828 202.4,45.535C153.811,49.855 90.189,57.902 30.521,72.762C24.921,74.159 20.979,79.174 20.979,84.946L20.979,183.486C20.979,190.979 27.5,196.793 34.946,195.943L105.815,187.826C116.48,186.624 126.767,194.596 126.767,207.006L126.767,629.047C126.767,635.969 132.378,641.581 139.301,641.581L542.033,641.581C548.956,641.581 554.567,635.969 554.567,629.047L554.567,206.967C554.567,194.651 564.846,186.592 575.519,187.826L646.388,195.943C653.834,196.793 660.354,190.979 660.354,183.486L660.354,84.914C660.354,79.174 656.468,74.155 650.895,72.754C599.519,59.833 538.614,49.929 478.649,44.809ZM269.561,263.486L222.322,310.733C214.977,318.077 203.087,318.104 195.715,310.733L173.869,288.887C166.521,281.539 166.521,269.628 173.869,262.28C181.198,254.936 193.112,254.936 200.456,262.28L209.018,270.846L242.97,236.895C250.318,229.55 262.224,229.55 269.561,236.895C276.905,244.243 276.905,256.153 269.561,263.486ZM534.524,322.807C534.524,328.899 531.578,334.616 526.599,338.143L476.893,373.406C470.376,378.022 461.646,378.022 455.125,373.406L405.408,338.143C400.444,334.616 397.483,328.899 397.483,322.807L397.483,246.647C397.483,239.025 402.087,232.153 409.147,229.262C445.814,214.163 486.208,214.163 522.876,229.262C529.919,232.153 534.524,239.025 534.524,246.647L534.524,322.807Z" style="fill:rgb(57,73,147);fill-rule:nonzero;"/>
    <path d="M276.995,109.375L322.564,151.455C332.632,160.758 348.324,160.696 358.322,151.307L403.765,108.567C414.72,98.261 423.297,85.375 428.573,71.295L439.531,42.023C413.717,40.481 380.569,39.463 359.473,39.377L359.473,76.684C359.473,87.08 351.047,95.49 340.667,95.49C330.287,95.49 321.861,87.08 321.861,76.684L321.861,39.467C295.789,39.775 266.946,40.934 241.264,42.565L250.981,69.929C256.304,84.926 265.307,98.565 276.995,109.375Z" style="fill:rgb(57,73,147);fill-rule:nonzero;"/>
    <path d="M435.098,259.962L435.098,313.094L466.009,335.006L496.913,313.094L496.913,259.962C476.651,254.108 455.356,254.097 435.098,259.962Z" style="fill:rgb(57,73,147);fill-rule:nonzero;"/>
</svg>
