<?xml version="1.0" encoding="UTF-8" standalone="no"?>
<!DOCTYPE svg PUBLIC "-//W3C//DTD SVG 1.1//EN" "http://www.w3.org/Graphics/SVG/1.1/DTD/svg11.dtd">
<svg width="100%" height="100%" viewBox="0 0 512 512" version="1.1" xmlns="http://www.w3.org/2000/svg" xmlns:xlink="http://www.w3.org/1999/xlink" xml:space="preserve" xmlns:serif="http://www.serif.com/" style="fill-rule:evenodd;clip-rule:evenodd;stroke-linejoin:round;stroke-miterlimit:1.41421;">
    <rect x="211" y="0" width="90" height="61" style="fill:rgb(57,73,147);fill-rule:nonzero;"/>
    <path d="M256,181C219.78,181 189.478,206.808 182.509,241L329.49,241C322.522,206.808 292.22,181 256,181Z" style="fill:rgb(57,73,147);fill-rule:nonzero;"/>
    <path d="M152.076,241C159.377,190.184 203.195,151 256,151C308.805,151 352.623,190.184 359.924,241L451,241L451,45C451,20.187 430.813,0 406,0L331,0L331,76C331,84.284 324.284,91 316,91L196,91C187.716,91 181,84.284 181,76L181,0L106,0C81.187,0 61,20.187 61,45L61,241L152.076,241Z" style="fill:rgb(57,73,147);fill-rule:nonzero;"/>
    <path d="M359.924,271C352.623,321.816 308.805,361 256,361C203.195,361 159.377,321.816 152.076,271L61,271L61,467C61,491.813 81.187,512 106,512L181,512L181,436C181,427.716 187.716,421 196,421L316,421C324.284,421 331,427.716 331,436L331,512L406,512C430.813,512 451,491.813 451,467L451,271L359.924,271Z" style="fill:rgb(57,73,147);fill-rule:nonzero;"/>
    <rect x="211" y="451" width="90" height="61" style="fill:rgb(57,73,147);fill-rule:nonzero;"/>
    <path d="M256,331C292.22,331 322.522,305.192 329.491,271L182.509,271C189.478,305.192 219.78,331 256,331Z" style="fill:rgb(57,73,147);fill-rule:nonzero;"/>
</svg>
